<mxfile host="app.diagrams.net" modified="2021-07-18T02:28:37.771Z" agent="5.0 (Macintosh; Intel Mac OS X 10_16_0) AppleWebKit/537.36 (KHTML, like Gecko) Chrome/81.0.4044.138 Safari/537.36" etag="wv0ndQBKKZMZ9rYpgSh1" version="14.8.5" type="github">
  <diagram id="MHcWdmuAcDAWiu4o9uiI" name="Page-1">
    <mxGraphModel dx="1186" dy="607" grid="1" gridSize="10" guides="1" tooltips="1" connect="1" arrows="1" fold="1" page="1" pageScale="1" pageWidth="827" pageHeight="1169" math="0" shadow="0">
      <root>
        <mxCell id="0" />
        <mxCell id="1" parent="0" />
        <mxCell id="y8Rs3h036UcBRli1bZmZ-3" style="rounded=0;orthogonalLoop=1;jettySize=auto;html=1;exitX=1;exitY=0.5;exitDx=0;exitDy=0;entryX=0;entryY=0.5;entryDx=0;entryDy=0;" parent="1" source="y8Rs3h036UcBRli1bZmZ-1" target="y8Rs3h036UcBRli1bZmZ-2" edge="1">
          <mxGeometry relative="1" as="geometry" />
        </mxCell>
        <mxCell id="y8Rs3h036UcBRli1bZmZ-7" style="edgeStyle=none;rounded=0;orthogonalLoop=1;jettySize=auto;html=1;exitX=1;exitY=0.25;exitDx=0;exitDy=0;entryX=0;entryY=0.5;entryDx=0;entryDy=0;" parent="1" source="y8Rs3h036UcBRli1bZmZ-2" target="y8Rs3h036UcBRli1bZmZ-4" edge="1">
          <mxGeometry relative="1" as="geometry" />
        </mxCell>
        <mxCell id="y8Rs3h036UcBRli1bZmZ-8" style="edgeStyle=none;rounded=0;orthogonalLoop=1;jettySize=auto;html=1;exitX=1;exitY=0.5;exitDx=0;exitDy=0;entryX=0;entryY=0.5;entryDx=0;entryDy=0;" parent="1" source="y8Rs3h036UcBRli1bZmZ-2" target="y8Rs3h036UcBRli1bZmZ-5" edge="1">
          <mxGeometry relative="1" as="geometry" />
        </mxCell>
        <mxCell id="y8Rs3h036UcBRli1bZmZ-9" style="edgeStyle=none;rounded=0;orthogonalLoop=1;jettySize=auto;html=1;exitX=1;exitY=0.75;exitDx=0;exitDy=0;entryX=0;entryY=0.5;entryDx=0;entryDy=0;" parent="1" source="y8Rs3h036UcBRli1bZmZ-2" target="y8Rs3h036UcBRli1bZmZ-6" edge="1">
          <mxGeometry relative="1" as="geometry" />
        </mxCell>
        <mxCell id="y8Rs3h036UcBRli1bZmZ-15" value="user" style="swimlane;" parent="1" vertex="1">
          <mxGeometry x="70" y="10" width="160" height="450" as="geometry">
            <mxRectangle x="70" y="10" width="60" height="23" as="alternateBounds" />
          </mxGeometry>
        </mxCell>
        <mxCell id="y8Rs3h036UcBRli1bZmZ-1" value="insert data" style="rounded=0;whiteSpace=wrap;html=1;" parent="y8Rs3h036UcBRli1bZmZ-15" vertex="1">
          <mxGeometry x="20" y="190" width="120" height="60" as="geometry" />
        </mxCell>
        <mxCell id="y8Rs3h036UcBRli1bZmZ-16" value="client" style="swimlane;" parent="1" vertex="1">
          <mxGeometry x="254" y="10" width="160" height="450" as="geometry">
            <mxRectangle x="254" y="10" width="60" height="23" as="alternateBounds" />
          </mxGeometry>
        </mxCell>
        <mxCell id="y8Rs3h036UcBRli1bZmZ-2" value="client-0-id-hash" style="rounded=0;whiteSpace=wrap;html=1;" parent="y8Rs3h036UcBRli1bZmZ-16" vertex="1">
          <mxGeometry x="20" y="130" width="120" height="60" as="geometry" />
        </mxCell>
        <mxCell id="y8Rs3h036UcBRli1bZmZ-18" value="client-n-id-hash" style="rounded=0;whiteSpace=wrap;html=1;" parent="y8Rs3h036UcBRli1bZmZ-16" vertex="1">
          <mxGeometry x="20" y="250" width="120" height="60" as="geometry" />
        </mxCell>
        <mxCell id="y8Rs3h036UcBRli1bZmZ-19" style="edgeStyle=none;rounded=0;orthogonalLoop=1;jettySize=auto;html=1;exitX=1;exitY=0.5;exitDx=0;exitDy=0;entryX=0;entryY=0.5;entryDx=0;entryDy=0;" parent="1" source="y8Rs3h036UcBRli1bZmZ-1" target="y8Rs3h036UcBRli1bZmZ-18" edge="1">
          <mxGeometry relative="1" as="geometry" />
        </mxCell>
        <mxCell id="y8Rs3h036UcBRli1bZmZ-20" style="edgeStyle=none;rounded=0;orthogonalLoop=1;jettySize=auto;html=1;exitX=1;exitY=0.25;exitDx=0;exitDy=0;entryX=0;entryY=0.75;entryDx=0;entryDy=0;" parent="1" source="y8Rs3h036UcBRli1bZmZ-18" target="y8Rs3h036UcBRli1bZmZ-4" edge="1">
          <mxGeometry relative="1" as="geometry" />
        </mxCell>
        <mxCell id="y8Rs3h036UcBRli1bZmZ-21" style="edgeStyle=none;rounded=0;orthogonalLoop=1;jettySize=auto;html=1;exitX=1;exitY=0.5;exitDx=0;exitDy=0;entryX=0;entryY=0.5;entryDx=0;entryDy=0;" parent="1" source="y8Rs3h036UcBRli1bZmZ-18" target="y8Rs3h036UcBRli1bZmZ-5" edge="1">
          <mxGeometry relative="1" as="geometry" />
        </mxCell>
        <mxCell id="y8Rs3h036UcBRli1bZmZ-22" style="edgeStyle=none;rounded=0;orthogonalLoop=1;jettySize=auto;html=1;exitX=1;exitY=0.75;exitDx=0;exitDy=0;entryX=0;entryY=0.75;entryDx=0;entryDy=0;" parent="1" source="y8Rs3h036UcBRli1bZmZ-18" target="y8Rs3h036UcBRli1bZmZ-6" edge="1">
          <mxGeometry relative="1" as="geometry" />
        </mxCell>
        <mxCell id="y8Rs3h036UcBRli1bZmZ-23" value="db-cluster" style="swimlane;" parent="1" vertex="1">
          <mxGeometry x="450" y="10" width="200" height="450" as="geometry" />
        </mxCell>
        <mxCell id="y8Rs3h036UcBRli1bZmZ-4" value="db1" style="rounded=0;whiteSpace=wrap;html=1;" parent="y8Rs3h036UcBRli1bZmZ-23" vertex="1">
          <mxGeometry x="40" y="80" width="120" height="60" as="geometry" />
        </mxCell>
        <mxCell id="y8Rs3h036UcBRli1bZmZ-5" value="db2" style="rounded=0;whiteSpace=wrap;html=1;" parent="y8Rs3h036UcBRli1bZmZ-23" vertex="1">
          <mxGeometry x="40" y="190" width="120" height="60" as="geometry" />
        </mxCell>
        <mxCell id="y8Rs3h036UcBRli1bZmZ-6" value="db3" style="rounded=0;whiteSpace=wrap;html=1;" parent="y8Rs3h036UcBRli1bZmZ-23" vertex="1">
          <mxGeometry x="40" y="300" width="120" height="60" as="geometry" />
        </mxCell>
      </root>
    </mxGraphModel>
  </diagram>
</mxfile>
